<?xml version="1.0" standalone="no"?>
<!DOCTYPE svg PUBLIC "-//W3C//DTD SVG 20010904//EN"
 "http://www.w3.org/TR/2001/REC-SVG-20010904/DTD/svg10.dtd">
<svg version="1.0" xmlns="http://www.w3.org/2000/svg"
 width="1280.000000pt" height="826.000000pt" viewBox="0 0 1280.000000 826.000000"
 preserveAspectRatio="xMidYMid meet">
<g transform="translate(0.000000,826.000000) scale(0.100000,-0.100000)"
fill="#000000" stroke="none">
<path d="M905 8233 c-170 -36 -289 -106 -358 -210 -56 -86 -69 -111 -77 -148
l-6 -30 -219 -5 c-121 -3 -226 -9 -232 -13 -10 -6 -13 -95 -13 -387 0 -292 3
-381 13 -387 6 -4 111 -10 232 -13 l220 -5 3 -363 c2 -303 0 -371 -13 -408
-19 -56 -19 -166 0 -219 8 -22 15 -75 15 -117 l0 -78 463 0 c254 0 467 -4 474
-8 7 -4 13 -36 15 -72 l3 -64 1385 -3 c762 -1 1419 -5 1460 -8 174 -14 417
-78 551 -145 365 -183 599 -507 674 -930 31 -176 30 -491 -1 -650 -7 -34 5
-41 186 -113 223 -89 480 -155 780 -201 295 -45 387 -51 760 -51 380 0 477 7
666 51 60 14 141 32 179 41 101 23 339 23 425 -1 205 -55 371 -205 449 -404
17 -43 181 -627 345 -1227 80 -292 124 -519 152 -772 20 -184 21 -728 2 -843
-7 -41 -12 -141 -12 -222 1 -167 8 -187 71 -213 29 -12 47 -13 92 -5 31 6 477
49 991 95 514 47 1026 94 1138 104 112 10 208 23 214 29 5 5 13 25 17 44 12
57 60 48 61 -12 0 -14 11 -47 24 -75 50 -105 143 -165 257 -165 203 0 323 152
285 362 l-8 47 73 3 74 3 13 39 c48 148 82 556 63 746 -27 253 -43 375 -60
438 -41 156 -473 1261 -881 2257 -92 226 -179 446 -193 490 -93 298 -82 525
34 722 68 115 221 244 389 328 98 50 263 111 410 154 250 73 259 79 294 188
17 50 17 53 -6 109 -29 73 -49 84 -155 84 -109 0 -172 14 -268 60 -143 68
-260 198 -341 377 -19 43 -46 101 -60 128 -13 28 -24 56 -24 63 0 24 -83 239
-137 353 l-55 116 23 44 c12 24 50 121 85 215 34 95 70 187 80 205 9 19 19 63
21 99 4 57 1 72 -24 120 -21 40 -42 63 -77 84 -72 45 -122 41 -271 -19 -161
-65 -217 -67 -329 -12 -42 21 -83 36 -89 34 -7 -3 -28 -12 -48 -21 l-36 -15
-87 54 -87 55 -155 0 c-141 0 -156 2 -174 20 -11 11 -20 25 -20 31 0 7 -14 56
-30 110 l-31 99 -93 0 -94 0 -30 -82 c-16 -46 -35 -100 -41 -121 -7 -20 -21
-42 -31 -47 -12 -7 -532 -10 -1479 -10 l-1460 0 -3 -47 -3 -48 -2957 -3 -2958
-2 -33 52 c-19 29 -41 65 -51 81 -14 23 -23 27 -62 27 -25 0 -53 4 -63 9 -9 6
-41 62 -71 125 -36 79 -58 116 -69 115 -9 0 -47 -7 -86 -16z m10886 -489 c64
-61 53 -171 -21 -209 -82 -42 -177 6 -187 96 -14 122 122 196 208 113z m-4647
-2306 c18 -29 51 -166 72 -299 20 -127 15 -371 -11 -464 -25 -92 -107 -252
-170 -330 -91 -113 -220 -219 -388 -317 l-47 -27 17 -36 c9 -19 22 -35 29 -35
27 0 193 64 262 101 194 103 322 245 462 510 75 140 112 189 163 210 l30 13
-6 207 -7 208 53 24 c76 35 113 70 147 143 17 35 37 64 45 64 30 0 254 -79
325 -115 211 -105 365 -259 449 -448 42 -92 55 -160 55 -277 0 -126 -24 -205
-100 -328 -96 -152 -225 -257 -426 -344 -553 -239 -1330 -268 -1834 -68 -348
139 -587 371 -649 631 -75 320 118 722 423 882 109 58 218 84 447 111 17 1
168 4 337 5 l308 1 14 -22z m5294 -5033 c112 -126 -25 -329 -191 -284 -58 15
-106 54 -128 103 -24 52 -24 90 0 142 30 66 49 74 177 74 l112 0 30 -35z"/>
</g>
</svg>
